<?xml version="1.0" standalone="no"?>
<!DOCTYPE svg PUBLIC "-//W3C//DTD SVG 20010904//EN"
 "http://www.w3.org/TR/2001/REC-SVG-20010904/DTD/svg10.dtd">
<svg version="1.0" xmlns="http://www.w3.org/2000/svg"
 width="512.000000pt" height="512.000000pt" viewBox="0 0 512.000000 512.000000"
 preserveAspectRatio="xMidYMid meet">
<metadata>
Created by potrace 1.14, written by Peter Selinger 2001-2017
</metadata>
<g transform="translate(0.000000,512.000000) scale(0.100000,-0.100000)"
fill="#000000" stroke="none">
<path d="M1690 5104 c-63 -23 -121 -65 -153 -111 -36 -53 -370 -825 -359 -832
114 -80 421 -279 527 -341 562 -329 1208 -553 1850 -639 154 -20 405 -45 410
-39 8 11 146 342 159 383 70 223 28 495 -107 695 -46 67 -145 167 -207 210
-72 49 -122 73 -321 159 -177 75 -224 85 -279 56 -42 -22 -57 -49 -164 -297
l-98 -226 -77 32 c-42 18 -203 88 -358 156 l-281 122 35 81 c50 115 56 143 51
223 -6 84 -41 158 -101 209 -22 19 -106 62 -195 101 -178 76 -248 88 -332 58z"/>
<path d="M13 4577 c-5 -7 -9 -93 -11 -192 l-2 -180 187 -130 c103 -71 338
-235 522 -364 185 -129 397 -273 471 -321 667 -427 1441 -716 2235 -834 332
-49 480 -58 1113 -63 l592 -5 0 171 0 171 -462 0 c-586 0 -840 13 -1190 61
-742 100 -1432 360 -2123 799 -79 50 -972 656 -1262 856 -44 30 -65 39 -70 31z"/>
<path d="M0 2371 l0 -1471 150 0 150 0 -2 1367 -3 1367 -65 46 c-36 25 -102
72 -147 104 l-83 57 0 -1470z"/>
<path d="M960 2035 l0 -1135 150 0 150 0 -2 1046 -3 1047 -144 88 c-79 49
-145 89 -147 89 -2 0 -4 -511 -4 -1135z"/>
<path d="M1930 1779 l0 -879 150 0 150 0 -2 822 -3 821 -147 57 -148 57 0
-878z"/>
<path d="M2890 1624 l0 -724 150 0 150 0 0 694 0 693 -150 30 -150 30 0 -723z"/>
<path d="M3860 1553 l0 -653 150 0 150 0 0 644 0 645 -42 5 c-24 3 -91 7 -151
8 l-107 3 0 -652z"/>
<path d="M4820 1545 l0 -645 150 0 150 0 0 645 0 645 -150 0 -150 0 0 -645z"/>
<path d="M0 300 l0 -300 2560 0 2560 0 0 300 0 300 -2560 0 -2560 0 0 -300z"/>
</g>
</svg>
